<!-- Generated by IcoMoon.io -->
<svg version="1.1" xmlns="http://www.w3.org/2000/svg" width="40" height="40" viewBox="0 0 40 40">
<title>address</title>
<path fill="#c0502e" d="M39.598 10.33l-4.75-3.66c-0.27-0.186-0.648-0.352-1.042-0.474-0.396-0.122-0.806-0.196-1.134-0.196h-13.672l1.602 10h12.070c0.328 0 0.738-0.074 1.132-0.196s0.774-0.29 1.042-0.472l4.75-3.664c0.27-0.182 0.404-0.424 0.404-0.668s-0.134-0.486-0.402-0.67zM17 2h-2c-0.552 0-1 0.448-1 1v7h-6.672c-0.332 0-0.74 0.074-1.134 0.198-0.396 0.12-0.774 0.286-1.042 0.472l-4.75 3.66c-0.27 0.182-0.402 0.426-0.402 0.67 0 0.242 0.132 0.484 0.402 0.67l4.75 3.664c0.268 0.182 0.646 0.35 1.042 0.47 0.394 0.122 0.802 0.196 1.134 0.196h6.672v17c0 0.552 0.448 1 1 1h2c0.552 0 1-0.448 1-1v-34c0-0.552-0.448-1-1-1z"></path>
</svg>
