<!-- Generated by IcoMoon.io -->
<svg version="1.1" xmlns="http://www.w3.org/2000/svg" width="40" height="40" viewBox="0 0 40 40">
<title>info</title>
<path fill="#c0502e" d="M24.864 0c2.68 0 4.020 1.824 4.020 3.914 0 2.61-2.328 5.024-5.358 5.024-2.538 0-4.018-1.5-3.948-3.98 0-2.086 1.762-4.958 5.286-4.958zM16.618 40c-2.116 0-3.666-1.304-2.186-7.048l2.428-10.184c0.422-1.628 0.492-2.282 0-2.282-0.634 0-3.378 1.124-5.004 2.234l-1.056-1.76c5.144-4.372 11.062-6.934 13.602-6.934 2.114 0 2.466 2.546 1.41 6.46l-2.782 10.704c-0.492 1.89-0.282 2.542 0.212 2.542 0.634 0 2.714-0.784 4.758-2.414l1.2 1.628c-5.004 5.094-10.47 7.054-12.582 7.054z"></path>
</svg>
