<!-- Generated by IcoMoon.io -->
<svg version="1.1" xmlns="http://www.w3.org/2000/svg" width="40" height="40" viewBox="0 0 40 40">
<title>map</title>
<path fill="#c0502e" d="M38.894 7.436l-12-6c-0.562-0.282-1.226-0.282-1.79 0l-11.26 5.63-11.212-3.738c-0.612-0.204-1.28-0.102-1.802 0.276-0.522 0.376-0.83 0.98-0.83 1.622v26.002c0 0.758 0.428 1.45 1.106 1.788l12 6c0.282 0.14 0.588 0.212 0.894 0.212s0.614-0.070 0.894-0.212l11.26-5.628 11.212 3.738c0.61 0.2 1.28 0.098 1.802-0.278s0.83-0.98 0.83-1.62v-26.004c0.002-0.758-0.426-1.45-1.104-1.788zM16 10.462l8-4v23.526l-8 4v-23.526zM4 8l8 2.666v23.322l-8-4v-21.988zM36 32.454l-8-2.668v-23.324l8 4v21.992z"></path>
</svg>
