<!-- Generated by IcoMoon.io -->
<svg version="1.1" xmlns="http://www.w3.org/2000/svg" width="40" height="40" viewBox="0 0 40 40">
<title>old-phone</title>
<path fill="#c0502e" d="M34.512 24.506c-0.192-1.334-1.222-2.374-2.548-2.684-5.154-1.208-6.446-4.176-6.664-7.468-0.914-0.17-2.54-0.354-5.3-0.354s-4.386 0.184-5.3 0.354c-0.218 3.292-1.51 6.26-6.664 7.468-1.326 0.312-2.356 1.35-2.548 2.684l-0.994 6.884c-0.35 2.424 1.43 4.61 3.906 4.61h23.2c2.474 0 4.256-2.186 3.906-4.61l-0.994-6.884zM20 30.984c-2.79 0-5.052-2.24-5.052-5s2.262-5 5.052-5 5.052 2.24 5.052 5-2.264 5-5.052 5zM39.9 12c-0.048-3-7.684-7.998-19.9-8-12.218 0.002-19.854 5-19.9 8s0.042 6.904 5.070 6.254c5.882-0.762 5.52-2.816 5.52-5.752 0-2.048 4.784-2.542 9.31-2.542s9.308 0.494 9.31 2.542c0 2.936-0.362 4.99 5.52 5.752 5.026 0.65 5.116-3.254 5.070-6.254z"></path>
</svg>
