<!-- Generated by IcoMoon.io -->
<svg version="1.1" xmlns="http://www.w3.org/2000/svg" width="40" height="40" viewBox="0 0 40 40">
<title>briefcase</title>
<path fill="#003d79" d="M18 20h4v4h18c0 0-0.298-8.918-0.4-11.708-0.1-2.652-1.050-4.292-4-4.292h-6.416c-0.994-1.876-2.064-3.89-2.394-4.512-0.662-1.246-0.888-1.488-2.358-1.488h-8.866c-1.47 0-1.694 0.242-2.358 1.488-0.33 0.622-1.4 2.636-2.392 4.512h-6.418c-2.952 0-3.89 1.64-4 4.292-0.108 2.654-0.398 11.708-0.398 11.708h18v-4zM15.298 5.832c0.46-0.864 0.616-1.032 1.634-1.032h6.134c1.018 0 1.176 0.168 1.632 1.032 0.172 0.32 0.636 1.2 1.15 2.168h-11.7c0.514-0.968 0.978-1.848 1.15-2.168zM22 30h-4v-4h-17c0 0 0.248 3.594 0.398 6.644 0.062 1.266 0.436 3.356 3.6 3.356h30.002c3.164 0 3.53-2.094 3.6-3.356 0.174-3.136 0.4-6.644 0.4-6.644h-17v4z"></path>
</svg>
