<!-- Generated by IcoMoon.io -->
<svg version="1.1" xmlns="http://www.w3.org/2000/svg" width="40" height="40" viewBox="0 0 40 40">
<title>brush</title>
<path fill="#003d79" d="M5.526 27.126c-3.030 2.976-0.47 6.032-4.494 10.558-1.816 2.046 7.476 1.422 12.078-3.102 1.954-1.922 1.402-4.718-0.692-6.778-2.094-2.056-4.94-2.6-6.892-0.678zM39.078 1.318c-1.552-1.528-18.758 12.258-23.878 17.292-2.542 2.5-3.39 3.84-4.168 4.84-0.34 0.438 0.11 0.57 0.308 0.672 1.008 0.516 1.712 0.992 2.622 1.886 0.912 0.894 1.398 1.586 1.918 2.578 0.106 0.196 0.242 0.636 0.684 0.304 1.020-0.766 2.382-1.602 4.924-4.098 5.122-5.032 19.146-21.948 17.59-23.474z"></path>
</svg>
