<!-- Generated by IcoMoon.io -->
<svg version="1.1" xmlns="http://www.w3.org/2000/svg" width="40" height="40" viewBox="0 0 40 40">
<title>compass</title>
<path fill="#003d79" d="M10.908 29.096c0 0 9.136-1.254 13.036-5.152s5.152-13.036 5.152-13.036-9.138 1.254-13.036 5.152-5.152 13.036-5.152 13.036zM18.034 18.030c1.636-1.636 4.77-2.8 7.458-3.524-0.722 2.684-1.89 5.84-3.52 7.464-1.086 1.090-2.852 1.090-3.938 0-1.090-1.086-1.090-2.85 0-3.94zM20.002 0.8c-10.606 0-19.202 8.596-19.202 19.2 0 10.606 8.596 19.202 19.202 19.202 10.602 0 19.2-8.596 19.2-19.202 0-10.604-8.598-19.2-19.2-19.2zM20 35.2c-8.394 0-15.2-6.804-15.2-15.2 0-8.394 6.804-15.2 15.2-15.2 8.394 0 15.202 6.804 15.202 15.2 0 8.394-6.808 15.2-15.202 15.2z"></path>
</svg>
