<!-- Generated by IcoMoon.io -->
<svg version="1.1" xmlns="http://www.w3.org/2000/svg" width="40" height="40" viewBox="0 0 40 40">
<title>download</title>
<path fill="#003d79" d="M30 14h-6v-12h-8v12h-6l10 10 10-10zM38.676 27.064c-0.42-0.448-3.222-3.446-4.022-4.228-0.53-0.518-1.288-0.836-2.084-0.836h-3.514l6.128 5.988h-7.088c-0.204 0-0.388 0.104-0.48 0.266l-1.632 3.746h-11.968l-1.632-3.746c-0.092-0.162-0.278-0.266-0.48-0.266h-7.088l6.126-5.988h-3.512c-0.794 0-1.552 0.318-2.084 0.836-0.8 0.784-3.602 3.782-4.022 4.228-0.978 1.042-1.516 1.872-1.26 2.898l1.122 6.148c0.256 1.028 1.382 1.872 2.504 1.872h32.624c1.122 0 2.248-0.844 2.504-1.872l1.122-6.148c0.252-1.026-0.284-1.856-1.264-2.898z"></path>
</svg>
