<!-- Generated by IcoMoon.io -->
<svg version="1.1" xmlns="http://www.w3.org/2000/svg" width="40" height="40" viewBox="0 0 40 40">
<title>graduation-cap</title>
<path fill="#003d79" d="M6.604 24.476c0.928 3.758 2.108 5.402 6.044 7.124 3.938 1.72 5.808 3.6 7.352 3.6 1.542 0 3.296-1.644 7.232-3.368 3.938-1.722 2.886-2.246 3.814-6.004l-11.046 5.372-13.396-6.724zM39.022 14.672l-16.65-9.324c-1.304-0.73-3.44-0.73-4.744 0l-16.652 9.324c-1.304 0.73-1.304 1.926 0 2.656l16.65 9.324c1.304 0.73 3.44 0.73 4.744 0l10.764-6.028-11.672-2.734c-0.45 0.11-0.944 0.172-1.462 0.172-2.104 0-3.808-1.012-3.808-2.262 0-1.254 1.706-2.266 3.808-2.266 1.632 0 3.020 0.614 3.56 1.468l12.364 4.058 3.098-1.734c1.302-0.728 1.302-1.924 0-2.654zM33.934 32.34c-0.13 0.77 2.566 2.036 2.822-0.214 1.158-10.144-0.832-13.062-0.832-13.062l-2.79 1.562c0-0.002 2.366 2.25 0.8 11.714z"></path>
</svg>
