<!-- Generated by IcoMoon.io -->
<svg version="1.1" xmlns="http://www.w3.org/2000/svg" width="40" height="40" viewBox="0 0 40 40">
<title>key</title>
<path fill="#003d79" d="M35.382 9.45c-1.006-5.954-6.44-9.934-12.138-8.882-5.7 1.050-10.512 5.632-9.506 11.59 0.214 1.282 0.816 3.288 1.526 4.73l-10.35 15.446c-0.382 0.57-0.598 1.598-0.484 2.282l0.666 3.942c0.116 0.684 0.744 1.144 1.4 1.028l3.032-0.562c0.656-0.118 1.488-0.696 1.848-1.278l4.094-6.622 0.036-0.044 2.772-0.512 4.78-7.758c1.57 0.278 3.824 0.184 5.156-0.062 5.696-1.052 8.174-7.34 7.168-13.298zM30.332 12.504c-1.568 2.34-3.168 0.692-5.406-0.95-2.238-1.636-4.27-2.644-2.704-4.984 1.568-2.34 4.652-2.91 6.894-1.27 2.24 1.638 2.782 4.864 1.216 7.204z"></path>
</svg>
