<!-- Generated by IcoMoon.io -->
<svg version="1.1" xmlns="http://www.w3.org/2000/svg" width="40" height="40" viewBox="0 0 40 40">
<title>landline</title>
<path fill="#003d79" d="M9.804 0.5c-2.808-0.554-5.574 1.25-6.138 4.046-2.21 10.91-2.21 19.994 0 30.908 0.494 2.45 2.674 4.146 5.11 4.146 0.34 0 0.684-0.032 1.030-0.1 2.824-0.558 4.658-3.276 4.092-6.072-1.956-9.664-1.956-17.196 0-26.86 0.564-2.792-1.27-5.51-4.094-6.068zM34 4h-17.128c0.146 0.934 0.162 1.902-0.034 2.88-1.872 9.44-1.872 16.796 0 26.24 0.196 0.98 0.18 1.946 0.034 2.88h17.128c2.2 0 4-1.8 4-4v-24c0-2.2-1.798-4-4-4zM24 29c-1.656 0-3-1.344-3-3s1.344-3 3-3 3 1.344 3 3-1.344 3-3 3zM34 18h-14v-8h14v8z"></path>
</svg>
