<!-- Generated by IcoMoon.io -->
<svg version="1.1" xmlns="http://www.w3.org/2000/svg" width="40" height="40" viewBox="0 0 40 40">
<title>new</title>
<path fill="#003d79" d="M37.38 24.688l-3.454-3.076c-1-0.89-1-2.348 0-3.238l3.454-3.078c1-0.89 0.734-1.718-0.592-1.848l-4.58-0.434c-1.324-0.124-2.040-1.266-1.582-2.532l2.43-6.766c0.456-1.27-0.102-1.73-1.238-1.028l-5.402 3.34c-1.136 0.708-2.606 0.32-3.262-0.852l-1.956-3.492c-0.658-1.176-1.744-1.18-2.414-0.016l-1.818 3.16c-0.674 1.17-2.216 1.666-3.426 1.112l-3.2-1.468c-1.216-0.56-2.146 0.084-2.074 1.432l0.172 3.23c0.074 1.348-0.922 2.734-2.208 3.082l-3.090 0.828c-1.284 0.348-1.52 1.36-0.52 2.25l3.454 3.078c1 0.89 1 2.348 0 3.238l-3.454 3.078c-1 0.89-0.736 1.754 0.586 1.914l4.19 0.508c1.322 0.16 2.058 1.34 1.636 2.622l-2.148 6.516c-0.422 1.282 0.18 1.778 1.336 1.11l4.926-2.852c1.156-0.668 2.712-0.3 3.458 0.816l2.044 3.078c0.744 1.118 1.862 1.058 2.48-0.136l1.798-3.466c0.62-1.196 2.104-1.684 3.296-1.086l3.468 1.734c1.196 0.594 2.114-0.020 2.042-1.364l-0.174-3.234c-0.070-1.348 0.922-2.73 2.212-3.078l3.086-0.832c1.288-0.348 1.524-1.36 0.524-2.25zM22 28h-4v-4h4v4zM22 22h-4v-10h4v10z"></path>
</svg>
