<!-- Generated by IcoMoon.io -->
<svg version="1.1" xmlns="http://www.w3.org/2000/svg" width="40" height="40" viewBox="0 0 40 40">
<title>open-book</title>
<path fill="#003d79" d="M21.19 10.392l0.892 2.742c0.738-0.632 1.67-1.198 2.882-1.59 1.18-0.384 2.222-0.6 3.164-0.724l-0.86-2.646c-0.952 0.138-2.002 0.36-3.16 0.736-1.156 0.376-2.11 0.9-2.918 1.482zM23.044 16.102l0.892 2.742c0.738-0.632 1.67-1.198 2.882-1.59 1.18-0.384 2.222-0.6 3.164-0.724l-0.86-2.646c-0.952 0.138-2.002 0.36-3.16 0.736-1.156 0.374-2.108 0.898-2.918 1.482zM24.9 21.81l0.892 2.742c0.738-0.632 1.67-1.198 2.882-1.59 1.18-0.384 2.222-0.6 3.164-0.724l-0.86-2.646c-0.952 0.138-2.002 0.36-3.16 0.736-1.158 0.374-2.11 0.9-2.918 1.482zM10.776 26.154l0.86 2.646c0.834-0.452 1.804-0.89 2.984-1.272 1.212-0.394 2.298-0.484 3.266-0.406l-0.892-2.742c-0.998 0.004-2.076 0.14-3.23 0.514-1.158 0.376-2.138 0.812-2.988 1.26zM7.066 14.736l0.86 2.646c0.834-0.452 1.804-0.888 2.984-1.272 1.212-0.394 2.298-0.484 3.266-0.406l-0.89-2.744c-0.998 0.006-2.076 0.14-3.232 0.516-1.158 0.376-2.138 0.812-2.988 1.26zM8.92 20.446l0.86 2.646c0.834-0.452 1.804-0.89 2.984-1.272 1.212-0.394 2.298-0.484 3.266-0.406l-0.89-2.744c-0.998 0.004-2.076 0.14-3.23 0.514-1.158 0.376-2.14 0.814-2.99 1.262zM22.128 2.82c-3.446 1.12-5.246 3.504-6.106 5.118-1.644-0.8-4.5-1.67-7.946-0.55-5.046 1.64-7.938 5.254-7.938 5.254l8.19 25.174c0.252 0.774 1.292 0.954 1.756 0.286 0.998-1.438 2.92-3.316 6.514-4.484 3.436-1.116 5.938 0.108 7.31 1.156 0.544 0.416 1.324 0.12 1.524-0.536 0.504-1.654 1.814-4.080 5.22-5.186 3.598-1.17 6.258-0.778 7.912-0.2 0.77 0.268 1.5-0.484 1.25-1.258l-8.176-25.188c0 0-4.464-1.224-9.51 0.414zM21.902 30.512c-1.638-0.488-3.802-0.716-6.282 0.088-2.502 0.812-4.254 1.898-5.398 2.808l-6.49-19.964c0.716-0.716 2.374-2.084 5.324-3.042 2.778-0.902 5.056-0.13 6.558 0.756l6.288 19.354zM35.69 25.134c-1.462-0.064-3.518 0.088-6.020 0.902-2.48 0.806-4.096 2.264-5.134 3.62l-6.288-19.354c0.692-1.6 2.080-3.564 4.86-4.466 2.948-0.958 5.094-0.826 6.094-0.668l6.488 19.966z"></path>
</svg>
