<!-- Generated by IcoMoon.io -->
<svg version="1.1" xmlns="http://www.w3.org/2000/svg" width="40" height="40" viewBox="0 0 40 40">
<title>user</title>
<path fill="#003d79" d="M15.45 4.292c-2.032 1.512-2.578 3.906-2.478 5.18 0.128 1.558 0.444 3.586 0.444 3.586s-0.626 0.34-0.626 1.708c0.218 3.434 1.366 1.952 1.602 3.458 0.568 3.628 1.866 2.982 1.866 4.962 0 3.298-1.36 4.84-5.606 6.668-4.26 1.836-8.652 4.146-8.652 8.146v2h36v-2c0-4-4.394-6.31-8.656-8.144-4.246-1.828-5.602-3.368-5.602-6.668 0-1.98 1.294-1.334 1.864-4.962 0.238-1.506 1.384-0.024 1.606-3.458 0-1.368-0.628-1.708-0.628-1.708s0.316-2.028 0.442-3.586c0.13-1.634-0.796-5.122-4.6-6.192-0.666-0.68-1.116-1.762 0.932-2.848-4.48-0.21-5.522 2.134-7.908 3.858z"></path>
</svg>
