<!-- Generated by IcoMoon.io -->
<svg version="1.1" xmlns="http://www.w3.org/2000/svg" width="40" height="40" viewBox="0 0 40 40">
<title>users</title>
<path fill="#003d79" d="M31.978 38.258c0-4.492-4.374-6.778-8.634-8.614-4.246-1.828-5.602-3.368-5.602-6.668 0-1.978 1.296-1.334 1.864-4.962 0.24-1.504 1.384-0.024 1.604-3.458 0-1.368-0.626-1.708-0.626-1.708s0.318-2.026 0.442-3.586c0.128-1.634-0.796-5.12-4.602-6.19-0.664-0.682-1.114-1.764 0.934-2.848-4.48-0.208-5.522 2.136-7.908 3.86-2.030 1.512-2.578 3.906-2.48 5.18 0.13 1.56 0.446 3.586 0.446 3.586s-0.628 0.34-0.628 1.708c0.22 3.436 1.368 1.954 1.606 3.458 0.568 3.628 1.866 2.984 1.866 4.962 0 3.3-0.424 4.42-4.672 6.248-4.262 1.834-5.588 4.774-5.566 9.032 0.006 1.274-0.022 1.742-0.022 1.742h32c0 0-0.022-0.468-0.022-1.742zM37.056 26.73c-2.27-0.914-3.21-2.004-3.21-4.132 0-1.282 0.836-0.864 1.204-3.206 0.154-0.968 0.894-0.016 1.036-2.23 0-0.882-0.404-1.102-0.404-1.102s0.206-1.312 0.286-2.318c0.1-1.254-0.728-4.494-4.536-4.494-3.806 0-4.636 3.24-4.538 4.494 0.084 1.004 0.288 2.318 0.288 2.318s-0.404 0.218-0.404 1.102c0.142 2.214 0.882 1.262 1.036 2.23 0.368 2.344 1.204 1.926 1.204 3.206 0 2.128-0.876 3.124-3.618 4.304-0.138 0.058-0.24 0.136-0.366 0.204 3.28 1.424 8.452 3.882 9.676 8.894h5.29c0 0 0-3.812 0-4.636 0-2-0.546-3.668-2.944-4.634z"></path>
</svg>
