<!-- Generated by IcoMoon.io -->
<svg version="1.1" xmlns="http://www.w3.org/2000/svg" width="40" height="40" viewBox="0 0 40 40">
<title>v-card</title>
<path fill="#003d79" d="M38 6h-36c-1.106 0-2 0.894-2 2v24c0 1.104 0.894 2 2 2h36c1.106 0 2-0.896 2-2v-24c0-1.104-0.894-2-2-2zM26 14h8v2h-8v-2zM22 29.606c-0.258-0.204-0.586-0.402-1.058-0.606-2.36-1.016-5.922-2.52-5.922-4.352 0-1.102 0.718-0.742 1.036-2.758 0.132-0.836 0.77-0.014 0.89-1.922 0-0.76-0.348-0.95-0.348-0.95s0.176-1.124 0.246-1.992c0.072-0.906-0.442-3.6-2.554-4.194-0.372-0.376-0.622-0.222 0.516-0.824-2.488-0.118-3.068 1.184-4.392 2.142-1.128 0.84-1.434 2.17-1.378 2.878 0.074 0.866 0.25 1.992 0.25 1.992s-0.35 0.188-0.35 0.948c0.122 1.908 0.76 1.086 0.89 1.922 0.316 2.016 1.038 1.656 1.038 2.758 0 1.832-3.562 3.336-5.922 4.352-0.406 0.176-0.698 0.346-0.942 0.52v-19.52h18v19.606zM36 22h-10v-2h10v2z"></path>
</svg>
