<?xml version="1.0" encoding="UTF-8" standalone="no"?><!DOCTYPE svg PUBLIC "-//W3C//DTD SVG 1.1//EN" "http://www.w3.org/Graphics/SVG/1.1/DTD/svg11.dtd"><svg width="100%" height="100%" viewBox="0 0 20 20" version="1.1" xmlns="http://www.w3.org/2000/svg" xmlns:xlink="http://www.w3.org/1999/xlink" xml:space="preserve" xmlns:serif="http://www.serif.com/" style="fill-rule:evenodd;clip-rule:evenodd;stroke-linejoin:round;stroke-miterlimit:2;"><path d="M4.088,9.951c0.58,0.576 1.282,0.864 2.103,0.864c0.811,0 1.506,-0.288 2.087,-0.864c0.581,-0.575 0.872,-1.273 0.872,-2.095c0,-0.82 -0.291,-1.518 -0.872,-2.094c-0.581,-0.576 -1.276,-0.863 -2.087,-0.863c-0.821,0 -1.523,0.287 -2.103,0.863c-0.581,0.576 -0.871,1.274 -0.871,2.094c0,0.822 0.29,1.52 0.871,2.095Zm-1.179,-5.375c0.907,-0.907 2,-1.36 3.282,-1.36c1.271,0 2.36,0.453 3.266,1.36c0.907,0.906 1.359,2.001 1.359,3.283c0,1.283 -0.452,2.377 -1.359,3.284c-0.906,0.907 -1.995,1.359 -3.266,1.359c-1.282,0 -2.375,-0.452 -3.282,-1.359c-0.906,-0.907 -1.359,-2.001 -1.359,-3.284c0,-1.282 0.453,-2.377 1.359,-3.283Z" style="fill:#4d6937;fill-rule:nonzero;"/><path d="M18.452,7.866c0,-1.28 -0.453,-2.377 -1.36,-3.288c-0.907,-0.91 -2.005,-1.366 -3.297,-1.366c-1.283,0 -2.378,0.456 -3.284,1.367c-0.907,0.912 -1.36,2.009 -1.36,3.291c0,1.282 0.453,2.377 1.36,3.284c0.905,0.906 1.999,1.359 3.281,1.359c0.852,0 1.619,-0.198 2.304,-0.594l-0.76,-1.529c-0.488,0.29 -1.002,0.436 -1.54,0.436c-0.811,0 -1.507,-0.29 -2.087,-0.871c-0.58,-0.579 -0.87,-1.275 -0.87,-2.085c0,-0.82 0.29,-1.52 0.87,-2.1c0.58,-0.581 1.275,-0.871 2.085,-0.871c0.819,0 1.522,0.29 2.106,0.87c0.586,0.581 0.879,1.28 0.879,2.1l0,1.261l0.004,-0.002l0,3.119l1.668,-0.001l0.001,-2.885l0,-1.495Z" style="fill:#bf502e;fill-opacity:0.73;fill-rule:nonzero;"/><path d="M6.195,12.503c-0.382,0 -0.747,-0.04 -1.096,-0.12c0.348,0.08 0.711,0.119 1.092,0.119c1.271,0 2.36,-0.452 3.266,-1.359c0.195,-0.196 0.37,-0.4 0.523,-0.613c0.001,0.001 0.001,0.002 0.002,0.003c-0.153,0.212 -0.327,0.415 -0.521,0.61c-0.907,0.907 -1.996,1.36 -3.266,1.36Zm-0.841,-1.799c-0.472,-0.132 -0.894,-0.383 -1.266,-0.753c-0.581,-0.575 -0.871,-1.273 -0.871,-2.095c0,-0.82 0.29,-1.518 0.871,-2.094c0.58,-0.576 1.282,-0.863 2.103,-0.863c0,0 0.001,0 0.002,0c-0.821,0 -1.521,0.288 -2.101,0.863c-0.581,0.576 -0.872,1.274 -0.872,2.095c0,0.821 0.291,1.519 0.872,2.095c0.371,0.369 0.792,0.619 1.262,0.752Zm4.632,-5.507c-0.155,-0.216 -0.331,-0.423 -0.529,-0.621c-0.905,-0.907 -1.994,-1.359 -3.264,-1.36c0,0 0.001,0 0.002,0c1.27,0 2.359,0.453 3.266,1.36c0.197,0.197 0.373,0.403 0.527,0.619c-0.001,0 -0.001,0.001 -0.002,0.002Z" style="fill:#97b383;fill-rule:nonzero;"/><path d="M6.191,12.502c-0.381,0 -0.744,-0.039 -1.092,-0.119c-0.821,-0.19 -1.55,-0.603 -2.186,-1.24c-0.907,-0.907 -1.359,-2.001 -1.359,-3.284c0,-1.282 0.452,-2.377 1.359,-3.283c0.905,-0.907 1.998,-1.359 3.28,-1.36c1.27,0.001 2.359,0.453 3.264,1.36c0.198,0.198 0.374,0.405 0.529,0.621c-0.544,0.759 -0.822,1.628 -0.834,2.605c-0.013,-0.798 -0.303,-1.477 -0.87,-2.04c-0.582,-0.576 -1.277,-0.863 -2.087,-0.863c-0.001,0 -0.002,0 -0.002,0c-0.001,0 -0.002,0 -0.002,0c-0.821,0 -1.523,0.287 -2.103,0.863c-0.581,0.576 -0.871,1.274 -0.871,2.094c0,0.822 0.29,1.52 0.871,2.095c0.372,0.37 0.794,0.621 1.266,0.753c0.265,0.075 0.545,0.112 0.841,0.112c0.81,0 1.505,-0.288 2.087,-0.864c0.565,-0.561 0.855,-1.236 0.87,-2.028c0.009,0.979 0.285,1.848 0.828,2.606c-0.153,0.213 -0.328,0.417 -0.523,0.613c-0.906,0.907 -1.995,1.359 -3.266,1.359Z" style="fill:#bf502e;fill-rule:nonzero;"/><path d="M9.982,10.533c-0.001,-0.001 -0.001,-0.002 -0.002,-0.003c-0.543,-0.758 -0.819,-1.627 -0.828,-2.606c0,-0.022 0,-0.044 0,-0.067c0,-0.018 0,-0.037 0,-0.055c0.012,-0.977 0.29,-1.846 0.834,-2.605c0.001,-0.001 0.001,-0.002 0.002,-0.002c0.554,0.773 0.831,1.661 0.831,2.664c0,1.007 -0.279,1.898 -0.837,2.674Z" style="fill:#bf502e;fill-opacity:0.69;fill-rule:nonzero;"/><path d="M2.019,15.105c0,0.22 0.146,0.455 0.385,0.455c0.239,0 0.384,-0.235 0.384,-0.455c0,-0.225 -0.145,-0.457 -0.384,-0.457c-0.239,0 -0.385,0.232 -0.385,0.457Zm1.241,0c0,0.505 -0.345,0.867 -0.856,0.867c-0.511,0 -0.856,-0.362 -0.856,-0.867c0,-0.507 0.348,-0.869 0.856,-0.869c0.507,0 0.856,0.362 0.856,0.869Z" style="fill:#bf502e;fill-rule:nonzero;"/><path d="M4.666,15.102c0,-0.219 -0.145,-0.454 -0.384,-0.454c-0.239,0 -0.385,0.235 -0.385,0.454c0,0.219 0.146,0.458 0.385,0.458c0.239,0 0.384,-0.239 0.384,-0.458Zm-0.723,-0.663c0.106,-0.126 0.279,-0.203 0.451,-0.203c0.462,0 0.744,0.431 0.744,0.86c0,0.444 -0.272,0.876 -0.753,0.876c-0.167,0 -0.342,-0.073 -0.435,-0.206l-0.007,0l0,1.022l-0.464,0l0,-2.499l0.464,0l0,0.15Z" style="fill:#bf502e;fill-rule:nonzero;"/><path d="M6.362,14.89c-0.023,-0.166 -0.129,-0.329 -0.309,-0.329c-0.185,0 -0.288,0.16 -0.312,0.329l0.621,0Zm-0.634,0.288c0,0.206 0.08,0.438 0.322,0.438c0.153,0 0.249,-0.092 0.312,-0.222l0.428,0.07c-0.113,0.325 -0.398,0.508 -0.74,0.508c-0.504,0 -0.813,-0.359 -0.813,-0.853c0,-0.495 0.262,-0.883 0.79,-0.883c0.534,0 0.773,0.395 0.773,0.886l0,0.056l-1.072,0Z" style="fill:#bf502e;fill-rule:nonzero;"/><path d="M7.48,14.439l0.007,0c0.096,-0.147 0.259,-0.203 0.425,-0.203c0.437,0 0.564,0.309 0.564,0.687l0,0.995l-0.465,0l0,-0.862c0,-0.196 0.01,-0.448 -0.252,-0.448c-0.276,0 -0.279,0.309 -0.279,0.504l0,0.806l-0.465,0l0,-1.629l0.465,0l0,0.15Z" style="fill:#bf502e;fill-rule:nonzero;"/><path d="M10.779,15.095c0,-0.219 -0.149,-0.454 -0.388,-0.454c-0.239,0 -0.385,0.235 -0.385,0.454c0,0.219 0.146,0.458 0.385,0.458c0.239,0 0.388,-0.239 0.388,-0.458Zm0.411,0.817l-0.458,0l0,-0.15l-0.006,0c-0.1,0.13 -0.272,0.203 -0.441,0.203c-0.478,0 -0.75,-0.435 -0.75,-0.876c0,-0.432 0.275,-0.86 0.743,-0.86c0.169,0 0.342,0.073 0.454,0.206l0,-0.152l0.458,0l0,1.629Z" style="fill:#bf502e;fill-opacity:0.73;fill-rule:nonzero;"/><path d="M12.634,14.78c-0.1,-0.099 -0.2,-0.159 -0.342,-0.159c-0.262,0 -0.412,0.246 -0.412,0.484c0,0.256 0.163,0.468 0.429,0.468c0.125,0 0.242,-0.063 0.325,-0.156l0,0.448c-0.126,0.07 -0.259,0.1 -0.402,0.1c-0.481,0 -0.822,-0.395 -0.822,-0.863c0,-0.485 0.354,-0.873 0.845,-0.873c0.13,0 0.266,0.034 0.379,0.103l0,0.448Z" style="fill:#bf502e;fill-opacity:0.73;fill-rule:nonzero;"/><path d="M14.031,14.78c-0.1,-0.099 -0.199,-0.159 -0.342,-0.159c-0.262,0 -0.411,0.246 -0.411,0.484c0,0.256 0.162,0.468 0.427,0.468c0.127,0 0.242,-0.063 0.326,-0.156l0,0.448c-0.126,0.07 -0.259,0.1 -0.402,0.1c-0.481,0 -0.823,-0.395 -0.823,-0.863c0,-0.485 0.355,-0.873 0.846,-0.873c0.13,0 0.266,0.034 0.379,0.103l0,0.448Z" style="fill:#bf502e;fill-opacity:0.73;fill-rule:nonzero;"/><path d="M15.438,14.883c-0.024,-0.166 -0.13,-0.329 -0.309,-0.329c-0.186,0 -0.289,0.16 -0.312,0.329l0.621,0Zm-0.634,0.289c0,0.205 0.08,0.438 0.322,0.438c0.152,0 0.249,-0.093 0.312,-0.223l0.428,0.07c-0.113,0.325 -0.398,0.508 -0.74,0.508c-0.505,0 -0.813,-0.359 -0.813,-0.853c0,-0.495 0.262,-0.883 0.79,-0.883c0.534,0 0.773,0.395 0.773,0.886l0,0.057l-1.072,0Z" style="fill:#bf502e;fill-opacity:0.73;fill-rule:nonzero;"/><path d="M16.818,14.667c-0.067,-0.063 -0.153,-0.113 -0.246,-0.113c-0.076,0 -0.152,0.06 -0.152,0.14c0,0.119 0.169,0.152 0.334,0.226c0.17,0.072 0.336,0.185 0.336,0.467c0,0.362 -0.292,0.578 -0.634,0.578c-0.219,0 -0.431,-0.1 -0.574,-0.272l0.212,-0.276c0.09,0.1 0.209,0.189 0.345,0.189c0.103,0 0.186,-0.069 0.186,-0.176c0,-0.142 -0.163,-0.176 -0.325,-0.245c-0.162,-0.07 -0.325,-0.166 -0.325,-0.428c0,-0.305 0.212,-0.528 0.517,-0.528c0.173,0 0.392,0.054 0.525,0.17l-0.199,0.268Z" style="fill:#bf502e;fill-opacity:0.73;fill-rule:nonzero;"/><path d="M18.178,14.667c-0.066,-0.063 -0.153,-0.113 -0.245,-0.113c-0.077,0 -0.153,0.06 -0.153,0.14c0,0.119 0.169,0.152 0.335,0.226c0.169,0.072 0.335,0.185 0.335,0.467c0,0.362 -0.292,0.578 -0.634,0.578c-0.219,0 -0.431,-0.1 -0.574,-0.272l0.213,-0.276c0.089,0.1 0.209,0.189 0.345,0.189c0.103,0 0.186,-0.069 0.186,-0.176c0,-0.142 -0.163,-0.176 -0.326,-0.245c-0.162,-0.07 -0.325,-0.166 -0.325,-0.428c0,-0.305 0.213,-0.528 0.518,-0.528c0.172,0 0.391,0.054 0.524,0.17l-0.199,0.268Z" style="fill:#bf502e;fill-opacity:0.73;fill-rule:nonzero;"/></svg>